<svg xmlns="http://www.w3.org/2000/svg" xmlns:xlink="http://www.w3.org/1999/xlink" width="71.532" height="51.78" viewBox="0 0 71.532 51.78">
  <metadata><?xpacket begin="﻿" id="W5M0MpCehiHzreSzNTczkc9d"?>
<x:xmpmeta xmlns:x="adobe:ns:meta/" x:xmptk="Adobe XMP Core 5.6-c138 79.159824, 2016/09/14-01:09:01        ">
   <rdf:RDF xmlns:rdf="http://www.w3.org/1999/02/22-rdf-syntax-ns#">
      <rdf:Description rdf:about=""/>
   </rdf:RDF>
</x:xmpmeta>
                                                                                                    
                                                                                                    
                                                                                                    
                                                                                                    
                                                                                                    
                                                                                                    
                                                                                                    
                                                                                                    
                                                                                                    
                                                                                                    
                                                                                                    
                                                                                                    
                                                                                                    
                                                                                                    
                                                                                                    
                                                                                                    
                                                                                                    
                                                                                                    
                                                                                                    
                                                                                                    
                           
<?xpacket end="w"?></metadata>
<defs>
    <style>
      .cls-1 {
        fill: #737373;
        fill-rule: evenodd;
        filter: url(#filter);
      }
    </style>
    <filter id="filter" x="346.656" y="5912.53" width="71.532" height="51.78" filterUnits="userSpaceOnUse">
      <feFlood result="flood" flood-color="#a4c58c"/>
      <feComposite result="composite" operator="in" in2="SourceGraphic"/>
      <feBlend result="blend" in2="SourceGraphic"/>
    </filter>
  </defs>
  <path id="new_vector_shape_done" class="cls-1" d="M364.121,5912.55a41.445,41.445,0,0,1,10.218.77c1.457,0.36,2.737.38,4.059,0.84a17.8,17.8,0,0,1,2.87,1.26,5.106,5.106,0,0,0,1.259.84,2.98,2.98,0,0,1,.98-0.7,17.156,17.156,0,0,1,4.479-1.82c0.614-.19,1.109-0.12,1.75-0.28,1.29-.34,2.949-0.38,4.339-0.7h1.12c0.878-.19,2.062.08,3.079-0.14a7.354,7.354,0,0,1,2.52,0c1.013,0.22,2.2-.06,3.079.14h1.12c0.721,0.16,1.58.09,2.379,0.28a46.719,46.719,0,0,1,5.389,1.26c1.92,0.71,3.855,1.44,4.9,3.01,0.609,0.91.49,2.52,0.49,4.06v29.68c0,4.08.1,8.35-.07,12.32a3.09,3.09,0,0,1-1.19.91,2.606,2.606,0,0,1-1.26-.28c-0.839-.24-1.775-0.24-2.589-0.42-0.908-.21-1.887-0.1-2.729-0.28h-1.05c-0.611-.14-1.433.02-2.17-0.14a24.066,24.066,0,0,0-4.619-.21,25.052,25.052,0,0,0-4.9,0c-0.612.13-1.435-.05-1.959,0.07H393.8c-0.811.17-1.948,0.11-2.729,0.28-0.817.04-1.633,0.09-2.45,0.14-1.423.32-3,.22-4.479,0.56a5.129,5.129,0,0,1-2.1.28c-1.8-.43-3.963-0.43-5.809-0.84-0.991-.23-2.085-0.08-3.01-0.28-1-.05-2.006-0.1-3.009-0.14h-1.12a12.327,12.327,0,0,0-3.639-.07c-0.5.08-1.366-.12-1.89,0-1.609.02-3.219,0.04-4.829,0.07-0.714.15-1.62-.04-2.449,0.14-1.894.41-4.1,0.26-5.879,0.7-1.264.3-2.825,0.73-3.5-.28-0.441-.66-0.21-2.41-0.21-3.43v-41.79a3.993,3.993,0,0,0,.42-0.91,4.945,4.945,0,0,1,1.05-1.19c2.063-1.56,4.621-2.19,7.558-2.94,1.921-.49,4.079-0.27,6.089-0.7C362.475,5912.47,363.609,5912.87,364.121,5912.55Zm-1.189,3.01a6.234,6.234,0,0,1-1.19.07c-0.849.18-1.757,0-2.66,0.21-3.459.8-7.226,0.87-9.378,2.94v38.99a23.967,23.967,0,0,0,0,3.08,0.393,0.393,0,0,0,.21.07,6.954,6.954,0,0,1,2.03-.28c1.106-.25,2.509-0.18,3.639-0.42h1.33c0.782-.17,1.816.05,2.729-0.14a25.406,25.406,0,0,1,4.9-.14,128.194,128.194,0,0,1,16.307,1.12,17.654,17.654,0,0,0,.07-3.99v-38.15a0.5,0.5,0,0,1-.07-0.28C376.512,5915.87,370.05,5915.61,362.932,5915.56Zm21,45.5a28.608,28.608,0,0,0,4.059-.56c0.968-.22,2.042-0.09,2.94-0.28h1.189c1.054-.23,2.479-0.05,3.57-0.28h5.529a109.848,109.848,0,0,1,13.927.98v-42.21c-0.26-.17-0.435-0.49-0.7-0.63a15.206,15.206,0,0,0-2.31-.84,36.373,36.373,0,0,0-12.177-1.68,37.247,37.247,0,0,0-8.958.7c-0.477.12-.787,0-1.26,0.14-2.135.6-4.415,1.04-5.809,2.38v42.28Zm-27.154-32.9H369.09c2.292,0,4.351-.54,4.339,1.89a2.529,2.529,0,0,1-.979,1.05,16.881,16.881,0,0,1-3.85.07h-8.538c-2.35,0-4.429.54-4.409-1.96a4.608,4.608,0,0,1,.63-0.84A4.508,4.508,0,0,0,356.773,5928.16Zm35.832,0h12.318c1.385,0,3.685-.34,4.059.7,0.81,0.82-.116,2.24-1.12,2.24-0.429.27-2.924,0.07-3.639,0.07h-9.378c-1.446,0-3.079.18-3.219-1.12C390.959,5929.22,392.245,5928.47,392.605,5928.16Zm-35.832,8.96H369.09c2.3,0,4.351-.55,4.339,1.89a2.611,2.611,0,0,1-.979,1.05,16.32,16.32,0,0,1-3.85.07h-8.538c-2.347,0-4.43.54-4.409-1.96a4.779,4.779,0,0,1,.56-0.77C356.388,5937.27,356.62,5937.26,356.773,5937.12Zm35.9,0h12.318c2.13,0,4.257-.43,4.269,1.75a2.6,2.6,0,0,1-.98,1.19,15.056,15.056,0,0,1-3.639.07h-8.538c-1.681,0-4.314.41-4.479-1.12a1.263,1.263,0,0,1,0-1.05c0.165-.13.2-0.37,0.349-0.49C392.171,5937.3,392.475,5937.28,392.675,5937.12Zm-35.9,8.96H372.31a2.659,2.659,0,0,1,1.119,1.05c0.009,1.02-.259,1.63-0.979,1.89-0.889.31-2.969,0.07-4.06,0.07h-8.118a15.609,15.609,0,0,1-3.639-.07,2.763,2.763,0,0,1-.98-0.98C355.622,5946.52,356.034,5946.73,356.773,5946.08Zm35.9,0h12.318c2.134,0,4.257-.43,4.269,1.75a2.479,2.479,0,0,1-.98,1.19,16.256,16.256,0,0,1-3.779.07h-8.4c-1.681,0-4.314.41-4.479-1.12a1.263,1.263,0,0,1,0-1.05,3.437,3.437,0,0,0,.279-0.42C392.1,5946.3,392.455,5946.26,392.675,5946.08Z" transform="translate(-346.656 -5912.53)"/>
</svg>
