<svg xmlns="http://www.w3.org/2000/svg" xmlns:xlink="http://www.w3.org/1999/xlink" width="60.5" height="51.63" viewBox="0 0 60.5 51.63">
  <metadata><?xpacket begin="﻿" id="W5M0MpCehiHzreSzNTczkc9d"?>
<x:xmpmeta xmlns:x="adobe:ns:meta/" x:xmptk="Adobe XMP Core 5.6-c138 79.159824, 2016/09/14-01:09:01        ">
   <rdf:RDF xmlns:rdf="http://www.w3.org/1999/02/22-rdf-syntax-ns#">
      <rdf:Description rdf:about=""/>
   </rdf:RDF>
</x:xmpmeta>
                                                                                                    
                                                                                                    
                                                                                                    
                                                                                                    
                                                                                                    
                                                                                                    
                                                                                                    
                                                                                                    
                                                                                                    
                                                                                                    
                                                                                                    
                                                                                                    
                                                                                                    
                                                                                                    
                                                                                                    
                                                                                                    
                                                                                                    
                                                                                                    
                                                                                                    
                                                                                                    
                           
<?xpacket end="w"?></metadata>
<defs>
    <style>
      .cls-1 {
        fill: #737373;
        fill-rule: evenodd;
        filter: url(#filter);
      }
    </style>
    <filter id="filter" x="587.25" y="5912.81" width="60.5" height="51.63" filterUnits="userSpaceOnUse">
      <feFlood result="flood" flood-color="#a4c58c"/>
      <feComposite result="composite" operator="in" in2="SourceGraphic"/>
      <feBlend result="blend" in2="SourceGraphic"/>
    </filter>
  </defs>
  <path id="new_vector_shape_done" class="cls-1" d="M617.173,5912.8a3.689,3.689,0,0,1,2.1.77c1.077,0.56,2.169,1.06,3.217,1.61,2.876,1.5,5.794,2.77,8.672,4.27,1.1,0.57,2.232,1.1,3.357,1.68a7.67,7.67,0,0,0,1.119.63h11.33a5.471,5.471,0,0,1,.56.49c0.351,0.45.21,1.61,0.21,2.38v36.91c0,1.06.147,2.16-.49,2.59-0.58.46-2.4,0.21-3.357,0.21H590.876c-1.154,0-2.989.25-3.427-.49-0.381-.64-0.14-2.31-0.14-3.22v-38.1c0.259-.26.5-0.51,0.769-0.77h11.33a6.15,6.15,0,0,0,.839-0.49c0.8-.42,1.607-0.79,2.378-1.19,2.373-1.24,4.791-2.35,7.134-3.57,1.725-.9,3.48-1.71,5.175-2.59A9.591,9.591,0,0,0,617.173,5912.8Zm0.209,2.38c-0.509.59-2.1,1.07-2.867,1.47-2.255,1.17-4.6,2.32-6.854,3.5a20.1,20.1,0,0,0-3.147,1.61h26.017v-0.14a14.736,14.736,0,0,1-3.287-1.61c-2.322-1.21-4.671-2.22-6.994-3.43A11.184,11.184,0,0,0,617.382,5915.18ZM589.547,5924v38.1H645.5V5924h-55.95Zm40.564,6.73c4.322-.06,6.457,1.73,7.9,4.55a7.6,7.6,0,0,1,.63,4.97,9.735,9.735,0,0,1-1.119,2.66,11.094,11.094,0,0,0-.98,1.12v12.82c-0.259.27-.5,0.51-0.769,0.77a1.963,1.963,0,0,1-.979-0.14c-0.233-.26-0.466-0.51-0.7-0.77-0.7-.68-1.4-1.35-2.1-2.03a2.234,2.234,0,0,0-1.189-.98l-3.706,3.78a1.965,1.965,0,0,1-.979.14,0.7,0.7,0,0,0-.28-0.14,4.018,4.018,0,0,1-.49-0.63v-12.82c-1.537-1.08-2.917-5-1.958-7.7a8.613,8.613,0,0,1,3.007-4.2,9.425,9.425,0,0,1,2.308-1.12A7.31,7.31,0,0,0,630.111,5930.73Zm-33.081,2.24h20.842a3.59,3.59,0,0,1,.629.49,1.211,1.211,0,0,1-.349,1.54c-0.58.46-3.8,0.21-4.9,0.21H600.387c-1.935,0-4.131.6-4.126-1.47a1.968,1.968,0,0,0,.21-0.35C596.62,5933.21,596.882,5933.15,597.03,5932.97Zm33.221,0-1.539.42a6.133,6.133,0,0,0-3.077,3.29,5.624,5.624,0,0,0,1.539,5.95c0.116,0.17.233,0.33,0.349,0.49,0.311,0.19.972,0.4,1.469,0.63a4.321,4.321,0,0,0,2.658.42,5.965,5.965,0,0,0,4.336-3.08c1.908-3.66-.839-7.11-3.637-7.98A7.039,7.039,0,0,0,630.251,5932.97Zm-33.221,4.48h14.128a1.188,1.188,0,0,1,.28,2.03c-0.509.41-2.771,0.21-3.707,0.21h-8.253c-1.732,0-3.226.34-3.217-1.47C596.52,5937.95,596.764,5937.71,597.03,5937.45Zm0,4.48h14.128a0.584,0.584,0,0,0,.28.14,3.954,3.954,0,0,1,.489.63,1.249,1.249,0,0,1-.489,1.26c-0.509.41-2.771,0.21-3.707,0.21h-8.253c-1.732,0-3.226.35-3.217-1.47a4.018,4.018,0,0,1,.49-0.63A0.59,0.59,0,0,0,597.03,5941.93Zm30.563,3.78v7.99h0.14a13.394,13.394,0,0,1,1.959-1.96,3.045,3.045,0,0,1,.909-0.84h0.7c0.661,0.65,1.374,1.23,2.028,1.89a3.153,3.153,0,0,0,.979.91v-7.99c-1.17.19-2.5,1.1-4.2,0.7C629.323,5946.23,628.272,5945.79,627.593,5945.71Zm-27.835,7.01c-0.519-.01-1.018-0.37-1.259-0.28a2.869,2.869,0,0,1-.489.7c-0.857.48-1.364-.22-1.749-0.63a7.646,7.646,0,0,1,1.679-4.9c0.686-.94,1.746-0.32,2.1.49a2.074,2.074,0,0,1,1.329-.07,2.815,2.815,0,0,1,.489.63v3.36H602v-0.14c0.363-.5.246-1.13,0.769-1.47a1.122,1.122,0,0,1,.84-0.21,2.261,2.261,0,0,1,.839.84c0.349-.24.7-0.47,1.049-0.7,0.329-.15.71-0.16,1.049-0.28a1.007,1.007,0,0,1,.979-0.84,0.6,0.6,0,0,1,.56.07,0.91,0.91,0,0,1,.629.91c0.348,0.74-.88,2.09-1.469,2.24a3.563,3.563,0,0,0-.979,0c-0.485.25-.88,0.85-1.4,1.12-0.386.2-.956,0.12-1.328,0.35-0.618.66-.694,1.49-2.029,1.47a2.058,2.058,0,0,0-.349-0.21A3.939,3.939,0,0,1,599.758,5952.72Z" transform="translate(-587.25 -5912.81)"/>
</svg>
