<svg xmlns="http://www.w3.org/2000/svg" xmlns:xlink="http://www.w3.org/1999/xlink" width="62.813" height="62.75" viewBox="0 0 62.813 62.75">
  <metadata><?xpacket begin="﻿" id="W5M0MpCehiHzreSzNTczkc9d"?>
<x:xmpmeta xmlns:x="adobe:ns:meta/" x:xmptk="Adobe XMP Core 5.6-c138 79.159824, 2016/09/14-01:09:01        ">
   <rdf:RDF xmlns:rdf="http://www.w3.org/1999/02/22-rdf-syntax-ns#">
      <rdf:Description rdf:about=""/>
   </rdf:RDF>
</x:xmpmeta>
                                                                                                    
                                                                                                    
                                                                                                    
                                                                                                    
                                                                                                    
                                                                                                    
                                                                                                    
                                                                                                    
                                                                                                    
                                                                                                    
                                                                                                    
                                                                                                    
                                                                                                    
                                                                                                    
                                                                                                    
                                                                                                    
                                                                                                    
                                                                                                    
                                                                                                    
                                                                                                    
                           
<?xpacket end="w"?></metadata>
<defs>
    <style>
      .cls-1 {
        fill: #737373;
        fill-rule: evenodd;
        filter: url(#filter);
      }
    </style>
    <filter id="filter" x="112.031" y="5907.19" width="62.813" height="62.75" filterUnits="userSpaceOnUse">
      <feFlood result="flood" flood-color="#a4c58c"/>
      <feComposite result="composite" operator="in" in2="SourceGraphic"/>
      <feBlend result="blend" in2="SourceGraphic"/>
    </filter>
  </defs>
  <path id="new_vector_shape_done" class="cls-1" d="M153.141,5907.2h0.7a0.862,0.862,0,0,0,.28.14,3.6,3.6,0,0,1,.49.63,13.938,13.938,0,0,1-2.8,9.17,6.74,6.74,0,0,1-1.189,1.4,22.167,22.167,0,0,1-1.958,1.4,2.611,2.611,0,0,0-.909.49,8.052,8.052,0,0,0-.35.84c-0.518,1-.942,2.02-1.469,3.08a50.392,50.392,0,0,0-3.077,7.22H143a8.953,8.953,0,0,1,2.1-1.96c0.509-.39.953-0.95,1.469-1.33,1.319-.98,2.644-1.84,4.056-2.74,0.93-.58,1.766-1.52,3.217-1.54a1.791,1.791,0,0,1,.77,1.26,13.731,13.731,0,0,0-.839,2.04c-0.907,1.83-1.626,3.88-2.448,5.81h0.21a7.976,7.976,0,0,1,2.028-1.68c1.552-1.15,2.925-2.63,4.476-3.78,0.517-.39,2.033-1.33,2.238-1.9,0.117-.31-0.219-1.33-0.07-1.96a10.153,10.153,0,0,1,1.119-3.08,8.069,8.069,0,0,1,4.546-3.29c2.74-.84,6.035,1.01,7.064,2.38a10.087,10.087,0,0,1,1.538,2.66c1.577,4.62-2.248,8.33-5.455,9.25-1.261.36-2.562-.1-3.707-0.14-0.488.62-1.779,1.15-2.1,1.82a14.062,14.062,0,0,1,3.5.7c2.74,0.75,6.459,1.33,7.763,3.43,0.422,0.68.28,2.07,0.28,3.15,0,3.59.317,5.11-2.238,6.3a19.71,19.71,0,0,1-1.818,8.06c-2.81,6.65-7.9,12.95-15.317,14.92H131.46a20.334,20.334,0,0,1-2.8-.98,26.487,26.487,0,0,1-12.939-14.78,41.425,41.425,0,0,1-1.259-5.04c-0.046-.73-0.093-1.45-0.14-2.18-0.186-.09-0.373-0.18-0.559-0.28a5.08,5.08,0,0,1-1.4-1.4c-0.567-.92-0.28-3.92-0.28-5.39v-1.82a3.942,3.942,0,0,1,1.959-2.03c2.476-1.56,5.773-2,9.092-2.8,1.192-.29,2.405-0.22,3.566-0.49,0.443-.11,1.123.06,1.329-0.28a9.561,9.561,0,0,1-1.259-2.94c-0.838-2.21-1.277-4.67-1.958-7.15-0.046-.44-0.093-0.88-0.14-1.33-0.35-1.45-.657-2.68,1.329-2.66a4.873,4.873,0,0,0,1.539.42,27.328,27.328,0,0,1,3.776,1.54,15.565,15.565,0,0,1,8.533,11.49h0.489c1.907-3.4.3-8.43-.909-11.21a12.193,12.193,0,0,1-10.071-5.6c-0.631-.95-1.608-2.15-1.608-3.64a2.758,2.758,0,0,1,.489-0.63,2.9,2.9,0,0,1,1.679-.21,14.949,14.949,0,0,1,3.636.56c3.424,0.96,6.021,2.29,7.2,5.46a16.239,16.239,0,0,1,.42,1.96v0.77c0.376,0.95,1.019,1.98,1.4,3.01,0.179,0.49.377,2.25,0.7,2.45a3.05,3.05,0,0,1,.419-0.91c0.3-.59.4-1.16,0.7-1.75,0.378-.72.96-1.57,1.259-2.31v-1.61a33.544,33.544,0,0,1,.839-4.2,11.892,11.892,0,0,1,4.126-5.53,8.886,8.886,0,0,1,1.469-.84A3.9,3.9,0,0,0,153.141,5907.2Zm-1.049,2.94c-0.4.6-1.241,0.89-1.678,1.47a9.917,9.917,0,0,0-2.378,6.02h0.139c0.441-.58,1.238-0.88,1.679-1.47a10.2,10.2,0,0,0,2.378-6.02h-0.14Zm-13.288,8.19c-0.11-3.5-4.6-5.08-8.043-5.46v0.07h-0.07v0.14a2.891,2.891,0,0,1,.42.7c0.336,0.47.759,0.92,1.119,1.4A10.638,10.638,0,0,0,138.8,5918.33Zm26.436,1.61a5.46,5.46,0,0,0,.98,1.89,11.773,11.773,0,0,0,3.706,3.99c0.353,0.24,1.776,1.27,2.1.99,0.653-.81.576-2.84,0.21-3.86a4.546,4.546,0,0,0-3.706-3.29,4.384,4.384,0,0,0-1.819-.14C166.233,5919.64,165.729,5919.86,165.24,5919.94Zm-38.326,1.12a19.607,19.607,0,0,0,.979,4.55c1.146,3.73,2.146,7.24,4.756,9.46a10.683,10.683,0,0,0,1.329,1.26c0.306,0.17.666,0.12,0.979,0.28a5.636,5.636,0,0,0,1.119.7v-0.14a14.8,14.8,0,0,1-1.049-2.17,45.114,45.114,0,0,0-2.937-4.62c-0.624-.87-2.1-2.03-2.1-3.36a1.461,1.461,0,0,1,1.468-.77,35.831,35.831,0,0,1,4.826,6.44,18.388,18.388,0,0,0,1.539,2.8v-2.1a4.932,4.932,0,0,1-.14-1.19,17.21,17.21,0,0,0-.979-3.36,14.244,14.244,0,0,0-6.644-6.52A8.3,8.3,0,0,0,126.914,5921.06Zm43.432,7.57a5.057,5.057,0,0,1-1.818-1.05,14.71,14.71,0,0,1-3.567-3.44c-0.333-.46-1.23-2.47-1.679-2.59-0.207.74-.629,1.4-0.839,2.31a4.177,4.177,0,0,0,.14,1.75,4.571,4.571,0,0,0,3.287,3.72,4.5,4.5,0,0,0,2.308.28c0.818-.2,1.475-0.57,2.168-0.77v-0.21Zm-19.513-.63a18.925,18.925,0,0,1-2.518,1.75,24.305,24.305,0,0,0-5.455,5.53,7.321,7.321,0,0,0-1.678,4.34h0.07v0.07c5.459-1.04,6.284-3.47,8.182-7.98a30.35,30.35,0,0,0,1.539-3.71h-0.14Zm-8.532,15.05a19.532,19.532,0,0,0,3.916-.07,6.9,6.9,0,0,0,1.539-.07,5.374,5.374,0,0,0,.559-0.56c0.848-.63,1.618-1.34,2.448-1.96,2.436-1.81,4.694-3.79,7.134-5.6a8.3,8.3,0,0,0,1.259-1.05,1.77,1.77,0,0,1,.419-0.63c0.246-.15.544-0.12,0.77-0.28,0.622-.44,1.14-1.09,1.748-1.54a2.969,2.969,0,0,0,1.119-.98,5.484,5.484,0,0,1-2.028-2.24,32.3,32.3,0,0,0-2.867,2.38c-2.943,2.18-5.6,4.67-8.533,6.86-1.191.89-2.159,2.15-3.427,2.94a21.885,21.885,0,0,1-4.2,1.61A3.485,3.485,0,0,1,142.3,5943.05Zm-13.778-8.26a5.229,5.229,0,0,1-1.259.14c-0.961.22-2.044,0.17-3.077,0.42a68.25,68.25,0,0,0-6.994,1.68c-0.846.31-2.522,0.61-2.8,1.4-0.291.54,2.015,1.77,2.868,1.54,1.686-.46,3.675-0.69,5.525-1.12h0.7c1.245-.29,2.806-0.27,4.057-0.56h0.769c0.829-.19,1.923-0.23,2.728-0.42a1.928,1.928,0,0,0,1.119-.21,10,10,0,0,1-2.728-2.87h-0.909Zm32.311,0.49a12.145,12.145,0,0,1-1.4,1.05c-0.437.32-.823,0.8-1.259,1.12a2.3,2.3,0,0,0-.84.7h0.77c0.59,0.36,2.709.21,3.567,0.42,1.577,0.38,3.308.39,4.895,0.84,0.852,0.24,1.892.58,2.728,0.77,0.779,0.18,3.147-1.09,3.217-1.75-0.163-.19-0.326-0.37-0.49-0.56a15.753,15.753,0,0,0-3.5-1.12A44.189,44.189,0,0,0,160.834,5935.28Zm-6.014,4.83a13.469,13.469,0,0,1-1.329.98c-0.317.24-.593,0.61-0.909,0.84a2.993,2.993,0,0,0-1.049.84H153c0.584-.35,2.838-0.08,3.707-0.28,0.836-.18,1.81-0.07,2.728-0.28,1.6-.36,3.377-0.45,4.965-0.77v-0.07a1.723,1.723,0,0,1-.21-0.07c-0.556-.34-1.637-0.17-2.378-0.35-1.6-.38-3.57-0.33-5.245-0.7C155.945,5940.11,155.33,5940.29,154.82,5940.11Zm-27.066.42a4.331,4.331,0,0,1-1.259.14,23.18,23.18,0,0,1-4.546.56v0.14c1.561,0.24,3.124.47,4.686,0.7,0.39-.58,1.416-1,1.678-1.54h-0.559Zm6.224,0.42a3.169,3.169,0,0,1-.839.14,17.142,17.142,0,0,0-2.378.7,6.892,6.892,0,0,0-3.707,3.57,8.882,8.882,0,0,0-.28,1.54,6.57,6.57,0,0,0-.139,2.46c0.139,0.59.259,1.42,0.419,1.96a28.048,28.048,0,0,0,.839,2.8,1.451,1.451,0,0,0,.42.91,11.51,11.51,0,0,1,1.818-2.8,26.251,26.251,0,0,1,5.875-6.66,10.405,10.405,0,0,1,2.1-1.12,5.284,5.284,0,0,0,1.329-.49c0.21-.25.42-0.51,0.63-0.77,0.039-.81-0.2-1.99-0.91-2.03a22.689,22.689,0,0,1-2.727,1.19,13.126,13.126,0,0,0-4.476,3.64c-0.717,1.02-.6,2.65-2.308,2.67a1.559,1.559,0,0,1-.769-1.47,10.423,10.423,0,0,0,.7-1.55c0.35-.57.783-1.13,1.189-1.68a14.028,14.028,0,0,1,2.168-2.03,4.026,4.026,0,0,0,1.4-.98h-0.35Zm-19.653.42a17.627,17.627,0,0,0,.07,3.08,28.206,28.206,0,0,0,4.756,1.96c0.849,0.3,1.786.33,2.588,0.56,0.326,0.1,2.573.37,2.588,0.35a3.116,3.116,0,0,0,.209-1.19c0.176-.65.474-1.31,0.63-1.96H125.1v-0.07a12.846,12.846,0,0,1-2.938-.49c-0.4-.04-0.792-0.09-1.188-0.14-1.458-.39-3.024-0.6-4.407-1.12A18.044,18.044,0,0,0,114.325,5941.37Zm58.049,0a3.3,3.3,0,0,1-.909.42,29.589,29.589,0,0,1-4.9,1.54c-0.426.13-.676,0.03-1.119,0.14-1.426.38-3.193,0.48-4.686,0.84-0.676.05-1.352,0.1-2.028,0.14-1.038.25-2.439,0.18-3.5,0.42H153.91c-0.613.14-1.529,0.07-2.168,0.21h-1.328c-0.569.13-1.444-.07-2.1,0.07-1.891.42-5.03,0.14-7.2,0.14-0.644.81-1.6,0.92-2.588,1.4a11.785,11.785,0,0,0-1.469.99,2.244,2.244,0,0,0-.979.84h1.959c0.468,0.29,1.487-.06,2.1.07a13.318,13.318,0,0,0,2.308.07h4.126a14.088,14.088,0,0,0,2.168-.14c1.134-.25,2.42.08,3.427-0.14,0.714-.16,1.507-0.01,2.1-0.14h1.189c1.052-.24,2.4-0.19,3.427-0.42,1.007-.24,1.955-0.05,2.937-0.28,1.787-.44,3.8-0.62,5.456-1.13,0.355-.1.554-0.03,0.909-0.14a21.485,21.485,0,0,0,3.217-1.26,1.58,1.58,0,0,0,1.049-.7,12.066,12.066,0,0,0,.07-2.94h-0.14Zm-55.671,6.59a6.467,6.467,0,0,0,.42,2.94c0.3,0.98.354,1.82,0.7,2.73a31.017,31.017,0,0,0,1.959,3.92,20.5,20.5,0,0,0,11.959,10.16H155.1c6.08-1.86,10.069-6.26,12.729-11.56a21.109,21.109,0,0,0,2.378-8.12h-0.07v-0.07c-1.906.8-4.276,1-6.434,1.54-0.859.21-1.576,0.07-2.448,0.28-1.785.42-3.948,0.28-5.8,0.7H154.33a31.8,31.8,0,0,1-3.427.28h-1.818a25.833,25.833,0,0,1-4.616.14q-3.322-.045-6.644-0.07c-0.546-.12-1.4.07-2.029-0.07a8.65,8.65,0,0,0-1.818-.14c-0.394.69-1.019,1.25-1.469,1.89-0.674.96-1.192,1.93-1.818,2.94-0.237.38-.62,0.79-0.839,1.19-0.515.93-.618,2.12-2.1,2.1-1.4-1.41-2.112-4.11-2.8-6.23a23.95,23.95,0,0,0-.49-2.8v-0.07a19.279,19.279,0,0,1-4.546-.84A23.438,23.438,0,0,1,116.7,5947.96Zm45.39,4.06h0.7a0.691,0.691,0,0,0,.279.14,3.6,3.6,0,0,1,.49.63,10.661,10.661,0,0,1-1.119,3.99c-1.471,3.5-2.945,6.17-6.225,7.84a7.353,7.353,0,0,1-4.406.84,17.821,17.821,0,0,1-4.2-1.26,13.314,13.314,0,0,0-1.329-.84h-1.538c-2-.44-5.834-0.42-5.805-2.73a1.461,1.461,0,0,1,1.468-.77c0.7,0.82,4.292,1.5,5.945,1.19,0.383-1.03,2.126-2.1,3.007-2.73a53.074,53.074,0,0,1,9.092-4.9c0.953-.44,1.956-0.73,2.868-1.12A2.519,2.519,0,0,0,162.093,5952.02Zm-1.469,2.94a11.714,11.714,0,0,1-2.377.98c-2.021,1.01-4.107,1.93-5.945,3.08a7.619,7.619,0,0,0-2.308,1.54h0.35a3.57,3.57,0,0,1,1.119-.28,6.488,6.488,0,0,1,2.587-.56,6.639,6.639,0,0,0,.56.63,3.021,3.021,0,0,1-.14,1.12,14.718,14.718,0,0,1-3.987,1.33v0.14a7.344,7.344,0,0,1,1.469.28,4.986,4.986,0,0,0,2.588-.28c2.55-.89,3.743-2.43,4.9-4.69,0.362-.71.72-1.55,1.049-2.31a2.312,2.312,0,0,0,.209-0.91v-0.07h-0.07Z" transform="translate(-112.031 -5907.19)"/>
</svg>
