<svg xmlns="http://www.w3.org/2000/svg" width="28" height="27" viewBox="0 0 28 27">
  <metadata><?xpacket begin="﻿" id="W5M0MpCehiHzreSzNTczkc9d"?>
<x:xmpmeta xmlns:x="adobe:ns:meta/" x:xmptk="Adobe XMP Core 5.6-c138 79.159824, 2016/09/14-01:09:01        ">
   <rdf:RDF xmlns:rdf="http://www.w3.org/1999/02/22-rdf-syntax-ns#">
      <rdf:Description rdf:about=""/>
   </rdf:RDF>
</x:xmpmeta>
                                                                                                    
                                                                                                    
                                                                                                    
                                                                                                    
                                                                                                    
                                                                                                    
                                                                                                    
                                                                                                    
                                                                                                    
                                                                                                    
                                                                                                    
                                                                                                    
                                                                                                    
                                                                                                    
                                                                                                    
                                                                                                    
                                                                                                    
                                                                                                    
                                                                                                    
                                                                                                    
                           
<?xpacket end="w"?></metadata>
<defs>
    <style>
      .cls-1 {
        fill: #343f3e;
        fill-rule: evenodd;
      }
    </style>
  </defs>
  <path id="Forma_1" data-name="Forma 1" class="cls-1" d="M737.6,3240H718.393a0.424,0.424,0,0,1-.425-0.42V3227.8a0.425,0.425,0,0,1,.849,0v11.36H737.18V3227.8a0.425,0.425,0,0,1,.849,0v11.78A0.417,0.417,0,0,1,737.6,3240Zm-0.015-11.76a0.452,0.452,0,0,1-.291-0.11l-9.3-8.71-9.3,8.71a0.426,0.426,0,0,1-.6-0.02,0.413,0.413,0,0,1,.017-0.59l9.587-8.98a0.434,0.434,0,0,1,.583,0l9.59,8.98a0.412,0.412,0,0,1,.018.59A0.419,0.419,0,0,1,737.589,3228.24Zm4-1.7a0.457,0.457,0,0,1-.292-0.11L728,3213.98l-13.294,12.45a0.426,0.426,0,0,1-.6-0.02,0.413,0.413,0,0,1,.016-0.59l13.587-12.72a0.415,0.415,0,0,1,.584,0l13.586,12.72a0.413,0.413,0,0,1,.017.59A0.419,0.419,0,0,1,741.585,3226.54Zm-10.2,13.46h-6.777a0.424,0.424,0,0,1-.425-0.42v-9.12a0.424,0.424,0,0,1,.425-0.42h6.777a0.423,0.423,0,0,1,.424.42v9.12A0.417,0.417,0,0,1,731.388,3240Zm-6.353-.84h5.928v-8.28h-5.928v8.28Z" transform="translate(-714 -3213)"/>
</svg>
