<svg xmlns="http://www.w3.org/2000/svg" width="102" height="110" viewBox="0 0 102 110">
  <metadata><?xpacket begin="﻿" id="W5M0MpCehiHzreSzNTczkc9d"?>
<x:xmpmeta xmlns:x="adobe:ns:meta/" x:xmptk="Adobe XMP Core 5.6-c138 79.159824, 2016/09/14-01:09:01        ">
   <rdf:RDF xmlns:rdf="http://www.w3.org/1999/02/22-rdf-syntax-ns#">
      <rdf:Description rdf:about=""/>
   </rdf:RDF>
</x:xmpmeta>
                                                                                                    
                                                                                                    
                                                                                                    
                                                                                                    
                                                                                                    
                                                                                                    
                                                                                                    
                                                                                                    
                                                                                                    
                                                                                                    
                                                                                                    
                                                                                                    
                                                                                                    
                                                                                                    
                                                                                                    
                                                                                                    
                                                                                                    
                                                                                                    
                                                                                                    
                                                                                                    
                           
<?xpacket end="w"?></metadata>
<defs>
    <style>
      .cls-1 {
        fill: #343f3e;
        fill-rule: evenodd;
      }
    </style>
  </defs>
  <path class="cls-1" d="M747.5,892.059a2.181,2.181,0,0,0-2.171,2.191v0.658a2.171,2.171,0,1,0,4.342,0V894.25A2.181,2.181,0,0,0,747.5,892.059Zm1.737,29.559v-1.949h1.186a2.181,2.181,0,0,0,2.172-2.191v-7.889a2.181,2.181,0,0,0-2.172-2.191h-0.751v-5.7a2.172,2.172,0,1,0-4.343,0v5.7h-1.4a2.181,2.181,0,0,0-2.171,2.191v7.889a2.181,2.181,0,0,0,2.171,2.191h0.97v3.725a2.181,2.181,0,0,0,2.171,2.191,1.609,1.609,0,0,1,0,3.217c-0.6,0-1.594-.142-1.594-1.1a2.172,2.172,0,1,0-4.343,0c0,3.174,2.5,5.478,5.937,5.478A6,6,0,0,0,749.234,921.618Zm-0.985-6.332h-2.156V911.78h2.156v3.506Zm2.7-30.365-66.855-20.346v-5.384A2.181,2.181,0,0,0,681.921,857H673.67a2.181,2.181,0,0,0-2.172,2.191V865.3l-19.869,20.176a2.2,2.2,0,0,0-.465,2.386,2.172,2.172,0,0,0,2,1.35H671.5v57.163l0,0-10.206,17.311a2.208,2.208,0,0,0-.021,2.2A2.167,2.167,0,0,0,663.157,967h37.655a2.172,2.172,0,0,0,2.021-1.389,2.207,2.207,0,0,0-.543-2.407l-18.2-17.068V889.211H750.32A2.194,2.194,0,0,0,750.947,884.921Zm-79.449-.093h-13.11l13.11-13.312v13.312Zm0,77.789h-4.522l4.522-7.672v7.672Zm8.252,0h-3.909V889.211h3.909v73.406Zm0-77.789h-3.909V868.394h3.909v16.434Zm0-20.817h-3.909v-2.629h3.909v2.629Zm4.342,88.107,11.194,10.5H684.092v-10.5Zm0-82.965,9.409,2.863-9.409,9.494V869.153Zm2.854,15.675,10.175-10.267L707.3,884.828H686.946Zm25.266-1.236-8.345-8.421,12.822,3.9Zm4.916,1.236,4.28-4.319,14.192,4.319H717.128Z" transform="translate(-651 -857)"/>
</svg>
