<svg xmlns="http://www.w3.org/2000/svg" width="108" height="108" viewBox="0 0 108 108">
  <metadata><?xpacket begin="﻿" id="W5M0MpCehiHzreSzNTczkc9d"?>
<x:xmpmeta xmlns:x="adobe:ns:meta/" x:xmptk="Adobe XMP Core 5.6-c138 79.159824, 2016/09/14-01:09:01        ">
   <rdf:RDF xmlns:rdf="http://www.w3.org/1999/02/22-rdf-syntax-ns#">
      <rdf:Description rdf:about=""/>
   </rdf:RDF>
</x:xmpmeta>
                                                                                                    
                                                                                                    
                                                                                                    
                                                                                                    
                                                                                                    
                                                                                                    
                                                                                                    
                                                                                                    
                                                                                                    
                                                                                                    
                                                                                                    
                                                                                                    
                                                                                                    
                                                                                                    
                                                                                                    
                                                                                                    
                                                                                                    
                                                                                                    
                                                                                                    
                                                                                                    
                           
<?xpacket end="w"?></metadata>
<defs>
    <style>
      .cls-1 {
        fill: #343f3e;
        fill-rule: evenodd;
      }
    </style>
  </defs>
  <path id="Forma_1" data-name="Forma 1" class="cls-1" d="M1031.16,888.127h-12.6a1.542,1.542,0,0,0-1.63,1.636v12.928a1.542,1.542,0,0,0,1.63,1.636h12.6a1.545,1.545,0,0,0,1.64-1.636V889.763A1.545,1.545,0,0,0,1031.16,888.127Zm-1.63,12.764h-9.33v-9.655h9.33v9.655Zm25.03-12.764h-12.6a1.542,1.542,0,0,0-1.63,1.636v12.928a1.542,1.542,0,0,0,1.63,1.636h12.6a1.545,1.545,0,0,0,1.64-1.636V889.763A1.545,1.545,0,0,0,1054.56,888.127Zm-1.63,12.764h-9.33v-9.655h9.33v9.655Zm1.63,8.182h-12.6a1.542,1.542,0,0,0-1.63,1.636v12.927a1.542,1.542,0,0,0,1.63,1.637h12.6a1.545,1.545,0,0,0,1.64-1.637V910.709A1.637,1.637,0,0,0,1054.56,909.073ZM1052.93,922h-9.33v-9.655h9.33V922Zm1.63,8.018h-12.6a1.542,1.542,0,0,0-1.63,1.637v12.927a1.542,1.542,0,0,0,1.63,1.636h12.6a1.545,1.545,0,0,0,1.64-1.636V931.655A1.638,1.638,0,0,0,1054.56,930.018Zm-1.63,12.928h-9.33v-9.655h9.33v9.655Zm-21.77-33.873h-12.6a1.542,1.542,0,0,0-1.63,1.636v12.927a1.542,1.542,0,0,0,1.63,1.637h12.6a1.545,1.545,0,0,0,1.64-1.637V910.709A1.637,1.637,0,0,0,1031.16,909.073ZM1029.53,922h-9.33v-9.655h9.33V922Zm1.63,8.018h-12.6a1.542,1.542,0,0,0-1.63,1.637v12.927a1.542,1.542,0,0,0,1.63,1.636h12.6a1.545,1.545,0,0,0,1.64-1.636V931.655A1.638,1.638,0,0,0,1031.16,930.018Zm-1.63,12.928h-9.33v-9.655h9.33v9.655ZM1085,920.855V910.218a1.545,1.545,0,0,0-1.64-1.636h-10.63a1.55,1.55,0,0,0-1.64,1.636v10.637a1.644,1.644,0,0,0,1.64,1.636h10.63A1.545,1.545,0,0,0,1085,920.855Zm-3.27-1.637h-7.37v-7.363h7.37v7.363Zm8.18,3.273h10.64a1.542,1.542,0,0,0,1.63-1.636V910.218a1.542,1.542,0,0,0-1.63-1.636h-10.64a1.55,1.55,0,0,0-1.64,1.636v10.637A1.644,1.644,0,0,0,1089.91,922.491Zm1.64-10.636h7.36v7.363h-7.36v-7.363Zm18.81,43.036h-0.81V900.727a1.549,1.549,0,0,0-1.64-1.636h-41.4V877.654a1.55,1.55,0,0,0-1.64-1.636h-4.25v-7.363a1.55,1.55,0,0,0-1.64-1.637h-12.76l-2.95-7.036a1.239,1.239,0,0,0-1.31-.982h-11.94a1.42,1.42,0,0,0-1.47.982l-2.95,7.036h-11.45a1.545,1.545,0,0,0-1.64,1.636v7.364h-4.42a1.55,1.55,0,0,0-1.64,1.636v77.237h-0.81a1.544,1.544,0,0,0-1.64,1.636v8.837a1.544,1.544,0,0,0,1.64,1.636h104.72a1.545,1.545,0,0,0,1.64-1.636v-8.837A1.637,1.637,0,0,0,1110.36,954.891Zm-43.69-52.527h39.6v52.691h-9.32V927.564a1.549,1.549,0,0,0-1.64-1.636h-17.67a1.544,1.544,0,0,0-1.64,1.636v27.327h-9.33V902.364h0Zm26.84,26.836v25.691h-14.24V929.2h14.24ZM1031,862.273h9.82l1.96,4.745h-13.91Zm-15.38,8.018h41.89v5.727h-41.89v-5.727Zm-5.89,9h53.51v75.6h-53.51v-75.6Zm99,84.436H1007.27v-5.563h101.46v5.563Z" transform="translate(-1004 -859)"/>
</svg>
