<svg xmlns="http://www.w3.org/2000/svg" width="111" height="108" viewBox="0 0 111 108">
  <metadata><?xpacket begin="﻿" id="W5M0MpCehiHzreSzNTczkc9d"?>
<x:xmpmeta xmlns:x="adobe:ns:meta/" x:xmptk="Adobe XMP Core 5.6-c138 79.159824, 2016/09/14-01:09:01        ">
   <rdf:RDF xmlns:rdf="http://www.w3.org/1999/02/22-rdf-syntax-ns#">
      <rdf:Description rdf:about=""/>
   </rdf:RDF>
</x:xmpmeta>
                                                                                                    
                                                                                                    
                                                                                                    
                                                                                                    
                                                                                                    
                                                                                                    
                                                                                                    
                                                                                                    
                                                                                                    
                                                                                                    
                                                                                                    
                                                                                                    
                                                                                                    
                                                                                                    
                                                                                                    
                                                                                                    
                                                                                                    
                                                                                                    
                                                                                                    
                                                                                                    
                           
<?xpacket end="w"?></metadata>
<defs>
    <style>
      .cls-1 {
        fill: #343f3e;
        fill-rule: evenodd;
      }
    </style>
  </defs>
  <path id="Forma_1" data-name="Forma 1" class="cls-1" d="M368.256,911.849a1.057,1.057,0,0,0-1.054-1.059H352.448V883.279h8.6l-31.523-21.692L298,883.279h8.079v29.628h29.507V891.744h10.539v21.163h4.256v10.581a1.054,1.054,0,1,0,2.108,0V912.907H367.2A1.056,1.056,0,0,0,368.256,911.849Zm-38.992-9.524H316.617V891.744h12.647v10.581Zm1.349-40.537,0.276,0.239a1.56,1.56,0,0,0,.482.089H367.2a1.058,1.058,0,0,0,0-2.116H331.371a1.056,1.056,0,0,0-1.053,1.058c0,0.023.01,0.042,0.012,0.065A1.06,1.06,0,0,0,330.613,861.788Zm38.752,8.793-3.217-5.6-3.216,5.6h2.162v31.744h-2.162l3.216,5.593,3.217-5.593H367.2V870.581h2.163Zm-25.348,50.791h-27.4V919.2l-5.572,3.23,5.572,3.229v-2.171h27.4v2.171l5.573-3.229-5.573-3.23v2.172Zm18.833,32.817L364.1,968l11.242-7.412,26.77-52.661-12.488-6.4Zm42.43-63.639-0.624-.319c-2.932-1.5-7.215-2.064-8.684.825L393,896.9l12.488,6.4,2.972-5.846C409.929,894.567,408.212,892.053,405.28,890.55Z" transform="translate(-298 -860)"/>
</svg>
