<svg xmlns="http://www.w3.org/2000/svg" width="26" height="19" viewBox="0 0 26 19">
  <metadata><?xpacket begin="﻿" id="W5M0MpCehiHzreSzNTczkc9d"?>
<x:xmpmeta xmlns:x="adobe:ns:meta/" x:xmptk="Adobe XMP Core 5.6-c138 79.159824, 2016/09/14-01:09:01        ">
   <rdf:RDF xmlns:rdf="http://www.w3.org/1999/02/22-rdf-syntax-ns#">
      <rdf:Description rdf:about=""/>
   </rdf:RDF>
</x:xmpmeta>
                                                                                                    
                                                                                                    
                                                                                                    
                                                                                                    
                                                                                                    
                                                                                                    
                                                                                                    
                                                                                                    
                                                                                                    
                                                                                                    
                                                                                                    
                                                                                                    
                                                                                                    
                                                                                                    
                                                                                                    
                                                                                                    
                                                                                                    
                                                                                                    
                                                                                                    
                                                                                                    
                           
<?xpacket end="w"?></metadata>
<defs>
    <style>
      .cls-1 {
        fill: #343f3e;
        fill-rule: evenodd;
      }
    </style>
  </defs>
  <path id="Forma_1" data-name="Forma 1" class="cls-1" d="M228.619,2887H203.381a0.38,0.38,0,0,0-.381.38v18.24a0.38,0.38,0,0,0,.381.38h25.238a0.38,0.38,0,0,0,.381-0.38v-18.24A0.38,0.38,0,0,0,228.619,2887Zm-0.381,18.24H203.762v-17.48h24.476v17.48Zm-0.879-1.41-7.651-7.33,7.651-7.33a0.37,0.37,0,0,0,.011-0.53,0.378,0.378,0,0,0-.538-0.01l-7.9,7.56a0.191,0.191,0,0,0-.053.05l-0.026.03-0.927.88a2.791,2.791,0,0,1-3.855,0l-0.926-.88-0.026-.03a0.191,0.191,0,0,0-.053-0.05l-7.9-7.56a0.378,0.378,0,0,0-.538.01,0.37,0.37,0,0,0,.011.53l7.651,7.33-7.651,7.33a0.371,0.371,0,0,0-.012.53,0.376,0.376,0,0,0,.275.12,0.389,0.389,0,0,0,.264-0.11l7.674-7.34,0.7,0.67a3.566,3.566,0,0,0,4.911,0l0.7-.67,7.674,7.34a0.389,0.389,0,0,0,.264.11,0.376,0.376,0,0,0,.275-0.12A0.371,0.371,0,0,0,227.359,2903.83Z" transform="translate(-203 -2887)"/>
</svg>
