<svg xmlns="http://www.w3.org/2000/svg" width="15" height="25" viewBox="0 0 15 25">
  <metadata><?xpacket begin="﻿" id="W5M0MpCehiHzreSzNTczkc9d"?>
<x:xmpmeta xmlns:x="adobe:ns:meta/" x:xmptk="Adobe XMP Core 5.6-c138 79.159824, 2016/09/14-01:09:01        ">
   <rdf:RDF xmlns:rdf="http://www.w3.org/1999/02/22-rdf-syntax-ns#">
      <rdf:Description rdf:about=""/>
   </rdf:RDF>
</x:xmpmeta>
                                                                                                    
                                                                                                    
                                                                                                    
                                                                                                    
                                                                                                    
                                                                                                    
                                                                                                    
                                                                                                    
                                                                                                    
                                                                                                    
                                                                                                    
                                                                                                    
                                                                                                    
                                                                                                    
                                                                                                    
                                                                                                    
                                                                                                    
                                                                                                    
                                                                                                    
                                                                                                    
                           
<?xpacket end="w"?></metadata>
<defs>
    <style>
      .cls-1 {
        fill: #343f3e;
        fill-rule: evenodd;
      }
    </style>
  </defs>
  <path id="Forma_1" data-name="Forma 1" class="cls-1" d="M222.093,2818H210.907a1.871,1.871,0,0,0-1.907,1.83v21.34a1.871,1.871,0,0,0,1.907,1.83h11.186a1.871,1.871,0,0,0,1.907-1.83v-21.34A1.871,1.871,0,0,0,222.093,2818Zm1.144,19.87H212.432a0.37,0.37,0,1,0,0,.74h10.805v2.56a1.128,1.128,0,0,1-1.144,1.1H210.907a1.128,1.128,0,0,1-1.144-1.1v-2.56h1.144a0.37,0.37,0,1,0,0-.74h-1.144v-16.21h13.474v16.21Zm0-16.94H209.763v-1.1a1.128,1.128,0,0,1,1.144-1.1h11.186a1.128,1.128,0,0,1,1.144,1.1v1.1Zm-5.212-1.47H216.5a0.37,0.37,0,1,0,0,.74h1.525A0.37,0.37,0,1,0,218.025,2819.46Zm-1.525,19.88a1.1,1.1,0,1,0,1.144,1.1A1.122,1.122,0,0,0,216.5,2839.34Zm0,1.46a0.365,0.365,0,1,1,.381-0.36A0.37,0.37,0,0,1,216.5,2840.8Zm-1.525-21.34a0.37,0.37,0,1,1-.382.37A0.379,0.379,0,0,1,214.975,2819.46Z" transform="translate(-209 -2818)"/>
</svg>
