<svg xmlns="http://www.w3.org/2000/svg" width="27" height="27" viewBox="0 0 27 27">
  <metadata><?xpacket begin="﻿" id="W5M0MpCehiHzreSzNTczkc9d"?>
<x:xmpmeta xmlns:x="adobe:ns:meta/" x:xmptk="Adobe XMP Core 5.6-c138 79.159824, 2016/09/14-01:09:01        ">
   <rdf:RDF xmlns:rdf="http://www.w3.org/1999/02/22-rdf-syntax-ns#">
      <rdf:Description rdf:about=""/>
   </rdf:RDF>
</x:xmpmeta>
                                                                                                    
                                                                                                    
                                                                                                    
                                                                                                    
                                                                                                    
                                                                                                    
                                                                                                    
                                                                                                    
                                                                                                    
                                                                                                    
                                                                                                    
                                                                                                    
                                                                                                    
                                                                                                    
                                                                                                    
                                                                                                    
                                                                                                    
                                                                                                    
                                                                                                    
                                                                                                    
                           
<?xpacket end="w"?></metadata>
<defs>
    <style>
      .cls-1 {
        fill: #343f3e;
        fill-rule: evenodd;
      }
    </style>
  </defs>
  <path class="cls-1" d="M229.19,2961.84a13.275,13.275,0,0,0,.225-2.3,12.847,12.847,0,0,0-12.825-12.82,13.716,13.716,0,0,0-2.3.22,7.5,7.5,0,0,0-3.69-.94,7.616,7.616,0,0,0-6.66,11.29,13.275,13.275,0,0,0-.225,2.3,12.847,12.847,0,0,0,12.825,12.82,13.716,13.716,0,0,0,2.3-.22,7.589,7.589,0,0,0,3.69.81,7.4,7.4,0,0,0,7.47-7.47A7.575,7.575,0,0,0,229.19,2961.84Zm-6.66,10.26a6.755,6.755,0,0,1-3.375-.77l-0.135-.09-0.18.05a13.716,13.716,0,0,1-2.3.22,11.941,11.941,0,0,1-11.925-11.92,13.275,13.275,0,0,1,.225-2.3l0.045-.18-0.09-.13a6.923,6.923,0,0,1-.9-3.38,6.718,6.718,0,0,1,6.7-6.7,6.837,6.837,0,0,1,3.375.9l0.135,0.09,0.18-.05a13.716,13.716,0,0,1,2.3-.22,11.941,11.941,0,0,1,11.925,11.92,13.275,13.275,0,0,1-.225,2.3l-0.045.18,0.09,0.13a6.816,6.816,0,0,1,.765,3.38A6.493,6.493,0,0,1,222.53,2972.1Zm-4.86-14.76c-3.375-.68-3.87-1.53-3.915-1.76a0.756,0.756,0,0,1,.36-0.76,4.369,4.369,0,0,1,3.195-.68,2.052,2.052,0,0,1,1.4.86c0.765,1.48,1.575,2.65,3.24,2.25a1.867,1.867,0,0,0,1.215-1.04,2.969,2.969,0,0,0-.09-2.47,6.943,6.943,0,0,0-6.165-3.06c-3.6,0-7.74,1.3-7.74,4.99,0,2.93,2.565,5,7.02,5.63,2.25,0.31,2.97,1.03,3.195,1.44a1.019,1.019,0,0,1,.045.81c-0.36.85-1.575,1.66-3.465,1.48a3.649,3.649,0,0,1-3.015-2.56,2.057,2.057,0,0,0-2.2-1.26,2.247,2.247,0,0,0-1.485.94,2.565,2.565,0,0,0-.135,2.34c0.5,1.53,2.16,4.05,7.695,4.05,4.635,0,7.425-2.92,7.47-5.62C224.285,2959.95,222.26,2958.24,217.67,2957.34Zm-0.9,10.3c-3.69,0-6.12-1.21-6.84-3.42a1.7,1.7,0,0,1,.045-1.57,1.329,1.329,0,0,1,.855-0.54h0.135a0.941,0.941,0,0,1,1.035.58,4.592,4.592,0,0,0,3.78,3.2c2.385,0.22,3.915-.9,4.41-2.07a1.859,1.859,0,0,0-.09-1.62c-0.36-.68-1.35-1.53-3.825-1.89-2.34-.36-6.255-1.4-6.255-4.73,0-3.01,3.69-4.09,6.84-4.09,3.33,0,4.995,1.84,5.355,2.56a2.278,2.278,0,0,1,.045,1.72,0.822,0.822,0,0,1-.63.53c-0.81.18-1.305,0-2.25-1.79a2.756,2.756,0,0,0-2.025-1.31,5.212,5.212,0,0,0-3.96.9,1.72,1.72,0,0,0-.63,1.67c0.315,1.07,1.8,1.84,4.635,2.38,5.175,1.04,5.895,2.93,5.895,4.68C223.3,2965.17,220.865,2967.64,216.77,2967.64Z" transform="translate(-203 -2946)"/>
</svg>
